<?xml version="1.0" encoding="UTF-8" standalone="no"?>
<svg
   xmlns:dc="http://purl.org/dc/elements/1.1/"
   xmlns:cc="http://creativecommons.org/ns#"
   xmlns:rdf="http://www.w3.org/1999/02/22-rdf-syntax-ns#"
   xmlns:svg="http://www.w3.org/2000/svg"
   xmlns="http://www.w3.org/2000/svg"
   xmlns:sodipodi="http://sodipodi.sourceforge.net/DTD/sodipodi-0.dtd"
   xmlns:inkscape="http://www.inkscape.org/namespaces/inkscape"
   sodipodi:docname="cloud.svg"
   inkscape:version="1.0 (4035a4fb49, 2020-05-01)"
   id="svg8"
   version="1.1"
   viewBox="0 0 33.866666 16.933333"
   height="64"
   width="128">
  <defs
     id="defs2" />
  <sodipodi:namedview
     inkscape:window-maximized="0"
     inkscape:window-y="0"
     inkscape:window-x="78"
     inkscape:window-height="1040"
     inkscape:window-width="1375"
     inkscape:pagecheckerboard="true"
     units="px"
     showgrid="false"
     inkscape:document-rotation="0"
     inkscape:current-layer="layer1"
     inkscape:document-units="px"
     inkscape:cy="32.982966"
     inkscape:cx="63.779091"
     inkscape:zoom="5.6"
     inkscape:pageshadow="2"
     inkscape:pageopacity="0.0"
     borderopacity="1.0"
     bordercolor="#666666"
     pagecolor="#ffffff"
     id="base" />
  <metadata
     id="metadata5">
    <rdf:RDF>
      <cc:Work
         rdf:about="">
        <dc:format>image/svg+xml</dc:format>
        <dc:type
           rdf:resource="http://purl.org/dc/dcmitype/StillImage" />
        <dc:title></dc:title>
      </cc:Work>
    </rdf:RDF>
  </metadata>
  <g
     id="layer1"
     inkscape:groupmode="layer"
     inkscape:label="Layer 1">
    <path
       transform="scale(0.26458333)"
       d="M 49 1 A 15.999999 15.999999 0 0 0 33.125 15.001953 A 15.999999 15.999999 0 0 0 33 15 A 15.999999 15.999999 0 0 0 17 31 A 15.999999 15.999999 0 0 0 1 47 A 15.999999 15.999999 0 0 0 17 63 A 15.999999 15.999999 0 0 0 25 60.855469 A 15.999999 15.999999 0 0 0 33 63 A 15.999999 15.999999 0 0 0 41 60.855469 A 15.999999 15.999999 0 0 0 49 63 A 15.999999 15.999999 0 0 0 57 60.855469 A 15.999999 15.999999 0 0 0 65 63 A 15.999999 15.999999 0 0 0 73 60.855469 A 15.999999 15.999999 0 0 0 81 63 A 15.999999 15.999999 0 0 0 88.5 61.132812 A 15.999999 15.999999 0 0 0 96 63 A 15.999999 15.999999 0 0 0 103.5 61.132812 A 15.999999 15.999999 0 0 0 111 63 A 15.999999 15.999999 0 0 0 127 47 A 15.999999 15.999999 0 0 0 112.99805 31.125 A 15.999999 15.999999 0 0 0 113 31 A 15.999999 15.999999 0 0 0 97 15 A 15.999999 15.999999 0 0 0 96.875 15.001953 A 15.999999 15.999999 0 0 0 81 1 A 15.999999 15.999999 0 0 0 73 3.1445312 A 15.999999 15.999999 0 0 0 65 1 A 15.999999 15.999999 0 0 0 57 3.1445312 A 15.999999 15.999999 0 0 0 49 1 z "
       style="fill:#ffffff;fill-opacity:1;fill-rule:evenodd;stroke:#000000;stroke-width:0.99999999;stroke-miterlimit:4;stroke-dasharray:none;stroke-opacity:1"
       id="path1549" />
  </g>
</svg>
