<?xml version="1.0" encoding="UTF-8" standalone="no"?>
<svg
   xmlns:dc="http://purl.org/dc/elements/1.1/"
   xmlns:cc="http://creativecommons.org/ns#"
   xmlns:rdf="http://www.w3.org/1999/02/22-rdf-syntax-ns#"
   xmlns:svg="http://www.w3.org/2000/svg"
   xmlns="http://www.w3.org/2000/svg"
   xmlns:sodipodi="http://sodipodi.sourceforge.net/DTD/sodipodi-0.dtd"
   xmlns:inkscape="http://www.inkscape.org/namespaces/inkscape"
   width="130"
   height="685"
   viewBox="0 0 34.3954 181.23729"
   version="1.1"
   id="svg8"
   inkscape:version="1.0 (4035a4fb49, 2020-05-01)"
   sodipodi:docname="spritesheet.svg">
  <defs
     id="defs2" />
  <sodipodi:namedview
     id="base"
     pagecolor="#7d7d7d"
     bordercolor="#666666"
     borderopacity="1.0"
     inkscape:pageopacity="0"
     inkscape:pageshadow="2"
     inkscape:zoom="5.6568542"
     inkscape:cx="44.484761"
     inkscape:cy="22.043131"
     inkscape:document-units="px"
     inkscape:current-layer="layer1"
     inkscape:document-rotation="0"
     showgrid="false"
     units="px"
     width="64px"
     inkscape:pagecheckerboard="true"
     inkscape:window-width="1920"
     inkscape:window-height="1017"
     inkscape:window-x="-8"
     inkscape:window-y="-8"
     inkscape:window-maximized="1"
     fit-margin-top="0"
     fit-margin-left="0"
     fit-margin-right="2"
     fit-margin-bottom="2" />
  <metadata
     id="metadata5">
    <rdf:RDF>
      <cc:Work
         rdf:about="">
        <dc:format>image/svg+xml</dc:format>
        <dc:type
           rdf:resource="http://purl.org/dc/dcmitype/StillImage" />
        <dc:title></dc:title>
      </cc:Work>
    </rdf:RDF>
  </metadata>
  <g
     style="display:inline;opacity:1;mix-blend-mode:normal"
     inkscape:label="Pipe"
     inkscape:groupmode="layer"
     id="layer1">
    <rect
       style="fill:#28b62c;fill-opacity:1;fill-rule:evenodd;stroke:#000000;stroke-width:0.52916;stroke-miterlimit:4;stroke-dasharray:none"
       id="rect10"
       width="16.933121"
       height="8.4665613"
       x="0.26458001"
       y="44.9786"
       rx="0.52911836"
       ry="0.52916008" />
    <rect
       style="fill:#28b62c;fill-opacity:1;fill-rule:evenodd;stroke:#000000;stroke-width:0.52916;stroke-miterlimit:4;stroke-dasharray:none"
       id="rect835"
       width="16.933121"
       height="126.99841"
       x="0.26458001"
       y="53.44516"
       rx="0.52911836"
       ry="0.52916008" />
    <rect
       style="fill:#67df69;fill-opacity:1;fill-rule:evenodd;stroke:none;stroke-width:0.26458"
       id="rect837"
       width="1.05832"
       height="6.3499198"
       x="1.3228999"
       y="46.036919"
       rx="0.52916002"
       ry="0.52916002" />
    <rect
       style="fill:#67df69;fill-opacity:1;fill-rule:evenodd;stroke:none;stroke-width:0.26458"
       id="rect841"
       width="1.05832"
       height="124.88176"
       x="1.3228999"
       y="54.503479"
       rx="0.52916002"
       ry="0.52916002" />
  </g>
  <g
     inkscape:label="Face 2"
     id="layer8"
     inkscape:groupmode="layer">
    <path
       inkscape:transform-center-y="-0.18595982"
       d="m 16.139349,35.982846 0.572318,1.159644 1.279742,0.185957 -0.92603,0.902656 0.218606,1.274571 -1.144636,-0.601771 -1.144636,0.601771 0.218606,-1.274571 -0.92603,-0.902656 1.279742,-0.185957 z"
       inkscape:randomized="0"
       inkscape:rounded="0"
       inkscape:flatsided="false"
       sodipodi:arg2="-0.9424778"
       sodipodi:arg1="-1.5707963"
       sodipodi:r2="0.97368556"
       sodipodi:r1="1.9473712"
       sodipodi:cy="37.930218"
       sodipodi:cx="16.139349"
       sodipodi:sides="5"
       id="path1717-8-2"
       style="display:inline;fill:#ffff00;fill-opacity:1;fill-rule:evenodd;stroke:#000000;stroke-width:0.52916;stroke-linecap:butt;stroke-linejoin:round;stroke-miterlimit:4;stroke-dasharray:none;stroke-opacity:1"
       sodipodi:type="star" />
    <path
       sodipodi:type="star"
       style="display:inline;fill:#ffff00;fill-opacity:1;fill-rule:evenodd;stroke:#000000;stroke-width:0.52916;stroke-linecap:butt;stroke-linejoin:round;stroke-miterlimit:4;stroke-dasharray:none;stroke-opacity:1"
       id="path1717-8"
       sodipodi:sides="5"
       sodipodi:cx="14.55187"
       sodipodi:cy="37.930218"
       sodipodi:r1="1.9473712"
       sodipodi:r2="0.97368556"
       sodipodi:arg1="-1.5707963"
       sodipodi:arg2="-0.9424778"
       inkscape:flatsided="false"
       inkscape:rounded="0"
       inkscape:randomized="0"
       d="m 14.55187,35.982846 0.572318,1.159644 1.279742,0.185957 -0.92603,0.902656 0.218606,1.274571 -1.144636,-0.601771 -1.144636,0.601771 0.218606,-1.274571 -0.92603,-0.902656 1.279742,-0.185957 z"
       inkscape:transform-center-y="-0.18595982" />
  </g>
  <g
     style="display:inline"
     inkscape:label="Face 1"
     id="layer5"
     inkscape:groupmode="layer">
    <ellipse
       ry="1.98435"
       rx="1.0583199"
       cy="37.967232"
       cx="7.1436601"
       id="path843-8"
       style="display:inline;fill:#ffffff;fill-opacity:1;stroke:#000000;stroke-width:0.52916;stroke-miterlimit:4;stroke-dasharray:none;stroke-opacity:1" />
    <ellipse
       style="display:inline;fill:#ffffff;fill-opacity:1;stroke:#000000;stroke-width:0.52916;stroke-miterlimit:4;stroke-dasharray:none;stroke-opacity:1"
       id="path843"
       cx="5.55618"
       cy="37.967232"
       rx="1.0583199"
       ry="1.98435" />
    <ellipse
       style="display:inline;fill:#ffbb80;fill-opacity:1;stroke:#000000;stroke-width:0.52916;stroke-miterlimit:4;stroke-dasharray:none;stroke-opacity:1"
       id="path869"
       cx="6.8790803"
       cy="39.95158"
       rx="1.85206"
       ry="0.79373997" />
    <ellipse
       style="display:inline;fill:#000000;fill-opacity:1;fill-rule:evenodd;stroke:none;stroke-width:0.52916;stroke-linejoin:round;stroke-miterlimit:4;stroke-dasharray:none"
       id="path1467-7"
       cx="7.4082398"
       cy="37.901085"
       rx="0.52915996"
       ry="0.99217498" />
    <ellipse
       ry="0.99217498"
       rx="0.52915996"
       cy="37.901085"
       cx="5.8207603"
       id="path1467"
       style="display:inline;fill:#000000;fill-opacity:1;fill-rule:evenodd;stroke:none;stroke-width:0.52916;stroke-linejoin:round;stroke-miterlimit:4;stroke-dasharray:none" />
  </g>
  <g
     style="display:inline"
     inkscape:label="Wing 3"
     id="layer7"
     inkscape:groupmode="layer" />
  <g
     inkscape:groupmode="layer"
     id="layer2"
     inkscape:label="Wing 2" />
  <g
     inkscape:groupmode="layer"
     id="layer9"
     inkscape:label="Wing 1" />
  <g
     inkscape:groupmode="layer"
     id="layer10"
     inkscape:label="Bird Body 3">
    <circle
       r="0.79373997"
       cy="21.430981"
       cx="23.283039"
       id="path1521"
       style="display:inline;fill:#ffffff;fill-opacity:1;fill-rule:evenodd;stroke:#000000;stroke-width:0.52916;stroke-linecap:butt;stroke-linejoin:round;stroke-miterlimit:4;stroke-dasharray:none;stroke-opacity:1" />
  </g>
  <g
     style="display:inline"
     inkscape:label="Bird Body 2"
     id="layer6"
     inkscape:groupmode="layer">
    <ellipse
       transform="rotate(45)"
       ry="2.6457999"
       rx="1.5874799"
       cy="5.6125898"
       cx="26.657839"
       id="path1487"
       style="display:inline;fill:#ffffff;fill-opacity:1;fill-rule:evenodd;stroke:#000000;stroke-width:0.52916;stroke-linejoin:round;stroke-miterlimit:4;stroke-dasharray:none;stroke-opacity:1" />
  </g>
  <g
     style="display:inline"
     inkscape:label="Bird Body 1"
     id="layer4"
     inkscape:groupmode="layer">
    <circle
       style="display:inline;fill:#ffffff;fill-opacity:1;fill-rule:evenodd;stroke:#000000;stroke-width:0.52916;stroke-miterlimit:1;stroke-dasharray:none;stroke-opacity:1"
       id="path10"
       r="4.2332797"
       cy="21.69556"
       cx="4.49786" />
  </g>
  <g
     style="display:inline"
     inkscape:label="Cloud"
     id="layer3"
     inkscape:groupmode="layer">
    <path
       id="path1549"
       style="opacity:1;fill:#ffffff;fill-opacity:1;fill-rule:evenodd;stroke:#000000;stroke-width:0.52916;stroke-miterlimit:4;stroke-dasharray:none;stroke-opacity:1"
       d="M 12.964418,0.26458001 A 4.2332797,4.2332797 0 0 0 8.76421,3.9692163 4.2332797,4.2332797 0 0 0 8.73114,3.9687004 4.2332797,4.2332797 0 0 0 4.49786,8.2019804 4.2332797,4.2332797 0 0 0 0.26458001,12.43526 4.2332797,4.2332797 0 0 0 4.49786,16.66854 a 4.2332797,4.2332797 0 0 0 2.11664,-0.5674 4.2332797,4.2332797 0 0 0 2.11664,0.5674 4.2332797,4.2332797 0 0 0 2.11664,-0.5674 4.2332797,4.2332797 0 0 0 2.11664,0.5674 4.2332797,4.2332797 0 0 0 2.11664,-0.5674 4.2332797,4.2332797 0 0 0 2.11664,0.5674 4.2332797,4.2332797 0 0 0 2.11664,-0.5674 4.2332797,4.2332797 0 0 0 2.11664,0.5674 4.2332797,4.2332797 0 0 0 1.98435,-0.494021 4.2332797,4.2332797 0 0 0 1.98435,0.494021 4.2332797,4.2332797 0 0 0 1.98435,-0.494021 4.2332797,4.2332797 0 0 0 1.98435,0.494021 4.2332797,4.2332797 0 0 0 4.23328,-4.23328 4.2332797,4.2332797 0 0 0 -3.704636,-4.2002076 4.2332797,4.2332797 0 0 0 5.29e-4,-0.03307 4.2332797,4.2332797 0 0 0 -4.23328,-4.23328 4.2332797,4.2332797 0 0 0 -0.03307,5.292e-4 4.2332797,4.2332797 0 0 0 -4.200223,-3.70464859 4.2332797,4.2332797 0 0 0 -2.11664,0.5674 4.2332797,4.2332797 0 0 0 -2.11664,-0.5674 4.2332797,4.2332797 0 0 0 -2.11664,0.5674 4.2332797,4.2332797 0 0 0 -2.11664,-0.5674 z" />
    <path
       d="m 0.69741378,30.29441 -0.01499,0.01499 c -0.207291,0.207292 -0.207291,0.540974 0,0.748265 l 0.93533192,0.935332 c 0.207292,0.207291 0.540974,0.207291 0.748265,0 l 0.935332,-0.935332 c 0.207292,-0.207292 0.207292,-0.540973 0,-0.748265 l -0.01499,-0.01499 z"
       style="display:inline;opacity:1;mix-blend-mode:normal;fill:#ffffff;fill-opacity:1;fill-rule:evenodd;stroke:#000000;stroke-width:0.52916;stroke-linecap:butt;stroke-linejoin:round;stroke-miterlimit:4;stroke-dasharray:none;stroke-opacity:1"
       id="rect1949-3" />
    <rect
       style="display:inline;opacity:1;mix-blend-mode:normal;fill:#ffffff;fill-opacity:1;fill-rule:evenodd;stroke:#000000;stroke-width:0.52916;stroke-linecap:butt;stroke-linejoin:round;stroke-miterlimit:4;stroke-dasharray:none;stroke-opacity:1"
       id="rect1949-6"
       width="2.9103799"
       height="1.0583199"
       x="9.7894602"
       y="30.162119"
       ry="0.52915996"
       rx="0.52915996" />
    <path
       d="m 20.512488,29.218627 c -0.135264,0 -0.270487,0.0519 -0.374133,0.155544 l -0.935332,0.935332 c -0.207291,0.207292 -0.207291,0.540974 0,0.748266 l 0.03049,0.03049 h 2.557951 l 0.03049,-0.03049 c 0.207292,-0.207292 0.207292,-0.540974 0,-0.748266 L 20.88662,29.374171 c -0.103645,-0.103645 -0.238869,-0.155544 -0.374132,-0.155544 z"
       style="display:inline;opacity:1;mix-blend-mode:normal;fill:#ffffff;fill-opacity:1;fill-rule:evenodd;stroke:#000000;stroke-width:0.52916;stroke-linecap:butt;stroke-linejoin:round;stroke-miterlimit:4;stroke-dasharray:none;stroke-opacity:1"
       id="rect1949" />
  </g>
</svg>
