<?xml version="1.0" encoding="UTF-8" standalone="no"?>
<svg
   xmlns:dc="http://purl.org/dc/elements/1.1/"
   xmlns:cc="http://creativecommons.org/ns#"
   xmlns:rdf="http://www.w3.org/1999/02/22-rdf-syntax-ns#"
   xmlns:svg="http://www.w3.org/2000/svg"
   xmlns="http://www.w3.org/2000/svg"
   xmlns:sodipodi="http://sodipodi.sourceforge.net/DTD/sodipodi-0.dtd"
   xmlns:inkscape="http://www.inkscape.org/namespaces/inkscape"
   sodipodi:docname="spritesheet.svg"
   inkscape:version="1.0 (4035a4fb49, 2020-05-01)"
   id="svg8"
   version="1.1"
   viewBox="0 0 34.3954 172.50615"
   height="652"
   width="130">
  <defs
     id="defs2" />
  <sodipodi:namedview
     fit-margin-bottom="2"
     fit-margin-right="2"
     fit-margin-left="0"
     fit-margin-top="0"
     inkscape:window-maximized="1"
     inkscape:window-y="-8"
     inkscape:window-x="-8"
     inkscape:window-height="1017"
     inkscape:window-width="1920"
     inkscape:pagecheckerboard="true"
     width="64px"
     units="px"
     showgrid="false"
     inkscape:document-rotation="0"
     inkscape:current-layer="layer3"
     inkscape:document-units="px"
     inkscape:cy="107.53773"
     inkscape:cx="21.597306"
     inkscape:zoom="3.3501941"
     inkscape:pageshadow="2"
     inkscape:pageopacity="0"
     borderopacity="1.0"
     bordercolor="#666666"
     pagecolor="#7d7d7d"
     id="base" />
  <metadata
     id="metadata5">
    <rdf:RDF>
      <cc:Work
         rdf:about="">
        <dc:format>image/svg+xml</dc:format>
        <dc:type
           rdf:resource="http://purl.org/dc/dcmitype/StillImage" />
        <dc:title></dc:title>
      </cc:Work>
    </rdf:RDF>
  </metadata>
  <g
     id="layer1"
     inkscape:groupmode="layer"
     inkscape:label="Pipe"
     style="display:inline;opacity:1;mix-blend-mode:normal">
    <rect
       ry="0.52916008"
       rx="0.52911836"
       y="45.243179"
       x="0.26458001"
       height="8.4665613"
       width="16.933121"
       id="rect10"
       style="fill:#28b62c;fill-opacity:1;fill-rule:evenodd;stroke:#000000;stroke-width:0.52916;stroke-miterlimit:4;stroke-dasharray:none" />
    <rect
       ry="0.49175602"
       rx="0.52970463"
       y="53.700359"
       x="0.2551989"
       height="118.02144"
       width="16.951883"
       id="rect835"
       style="fill:#28b62c;fill-opacity:1;fill-rule:evenodd;stroke:#000000;stroke-width:0.510398;stroke-miterlimit:4;stroke-dasharray:none" />
    <rect
       ry="0.52916002"
       rx="0.52916002"
       y="46.301498"
       x="1.3228999"
       height="6.3499198"
       width="1.05832"
       id="rect837"
       style="fill:#67df69;fill-opacity:1;fill-rule:evenodd;stroke:none;stroke-width:0.26458" />
    <rect
       ry="0.49104255"
       rx="0.52916002"
       y="54.768059"
       x="1.3228999"
       height="115.88604"
       width="1.05832"
       id="rect841"
       style="fill:#67df69;fill-opacity:1;fill-rule:evenodd;stroke:none;stroke-width:0.254873" />
  </g>
  <g
     inkscape:groupmode="layer"
     id="layer8"
     inkscape:label="Face 2">
    <path
       sodipodi:type="star"
       style="display:inline;fill:#ffff00;fill-opacity:1;fill-rule:evenodd;stroke:#000000;stroke-width:0.52916;stroke-linecap:butt;stroke-linejoin:round;stroke-miterlimit:4;stroke-dasharray:none;stroke-opacity:1"
       id="path1717-8-2"
       sodipodi:sides="5"
       sodipodi:cx="16.139349"
       sodipodi:cy="37.930218"
       sodipodi:r1="1.9473712"
       sodipodi:r2="0.97368556"
       sodipodi:arg1="-1.5707963"
       sodipodi:arg2="-0.9424778"
       inkscape:flatsided="false"
       inkscape:rounded="0"
       inkscape:randomized="0"
       d="m 16.139349,35.982846 0.572318,1.159644 1.279742,0.185957 -0.92603,0.902656 0.218606,1.274571 -1.144636,-0.601771 -1.144636,0.601771 0.218606,-1.274571 -0.92603,-0.902656 1.279742,-0.185957 z"
       inkscape:transform-center-y="-0.18595982" />
    <path
       inkscape:transform-center-y="-0.18595982"
       d="m 14.55187,35.982846 0.572318,1.159644 1.279742,0.185957 -0.92603,0.902656 0.218606,1.274571 -1.144636,-0.601771 -1.144636,0.601771 0.218606,-1.274571 -0.92603,-0.902656 1.279742,-0.185957 z"
       inkscape:randomized="0"
       inkscape:rounded="0"
       inkscape:flatsided="false"
       sodipodi:arg2="-0.9424778"
       sodipodi:arg1="-1.5707963"
       sodipodi:r2="0.97368556"
       sodipodi:r1="1.9473712"
       sodipodi:cy="37.930218"
       sodipodi:cx="14.55187"
       sodipodi:sides="5"
       id="path1717-8"
       style="display:inline;fill:#ffff00;fill-opacity:1;fill-rule:evenodd;stroke:#000000;stroke-width:0.52916;stroke-linecap:butt;stroke-linejoin:round;stroke-miterlimit:4;stroke-dasharray:none;stroke-opacity:1"
       sodipodi:type="star" />
  </g>
  <g
     inkscape:groupmode="layer"
     id="layer5"
     inkscape:label="Face 1"
     style="display:inline">
    <ellipse
       ry="1.98435"
       rx="1.0583199"
       cy="37.967281"
       cx="7.1436591"
       id="path843-8-8"
       style="display:inline;fill:#ffffff;fill-opacity:1;stroke:#000000;stroke-width:0.52916;stroke-miterlimit:4;stroke-dasharray:none;stroke-opacity:1" />
    <path
       id="path843-1"
       style="display:inline;fill:#ffffff;fill-opacity:1;stroke:#000000;stroke-width:0.52916;stroke-miterlimit:4;stroke-dasharray:none;stroke-opacity:1"
       d="m 5.5561796,35.982929 a 1.0583199,1.9843499 0 0 0 -1.0583199,1.98435 1.0583199,1.9843499 0 0 0 0.2123874,1.19216 0.79373998,0.79373998 0 0 1 0.052193,-0.0016 0.79373998,0.79373998 0 0 1 0.7937395,0.79374 1.0583199,1.9843499 0 0 0 1.05832,-1.98435 1.0583199,1.9843499 0 0 0 -1.05832,-1.98435 z" />
    <path
       id="path869-1"
       style="display:inline;fill:#ffbb80;fill-opacity:1;stroke:#000000;stroke-width:0.52916;stroke-miterlimit:4;stroke-dasharray:none;stroke-opacity:1"
       d="m 6.8558256,39.157889 a 1.8520599,0.79373998 0 0 0 -1.45829,0.317806 0.79373998,0.79373998 0 0 1 0.158644,0.475934 0.79373998,0.79373998 0 0 1 -0.159161,0.475934 1.8520599,0.79373998 0 0 0 1.482061,0.317806 1.8520599,0.79373998 0 0 0 1.85206,-0.79374 1.8520599,0.79373998 0 0 0 -1.85206,-0.79374 1.8520599,0.79373998 0 0 0 -0.02325,0 z" />
    <ellipse
       style="display:inline;fill:#000000;fill-opacity:1;fill-rule:evenodd;stroke:none;stroke-width:0.52916;stroke-linejoin:round;stroke-miterlimit:4;stroke-dasharray:none"
       id="path1467-7-8"
       cx="7.4082398"
       cy="37.901134"
       rx="0.52915996"
       ry="0.99217498" />
    <ellipse
       ry="0.99217498"
       rx="0.52915996"
       cy="37.901134"
       cx="5.8207593"
       id="path1467-6"
       style="display:inline;fill:#000000;fill-opacity:1;fill-rule:evenodd;stroke:none;stroke-width:0.52916;stroke-linejoin:round;stroke-miterlimit:4;stroke-dasharray:none" />
  </g>
  <g
     inkscape:groupmode="layer"
     id="layer7"
     inkscape:label="Wing 3"
     style="display:inline">
    <path
       id="rect1949"
       style="display:inline;opacity:1;mix-blend-mode:normal;fill:#ffffff;fill-opacity:1;fill-rule:evenodd;stroke:#000000;stroke-width:0.52916;stroke-linecap:butt;stroke-linejoin:round;stroke-miterlimit:4;stroke-dasharray:none;stroke-opacity:1"
       d="m 20.512488,29.218627 c -0.135264,0 -0.270487,0.0519 -0.374133,0.155544 l -0.935332,0.935332 c -0.207291,0.207292 -0.207291,0.540974 0,0.748266 l 0.03049,0.03049 h 2.557951 l 0.03049,-0.03049 c 0.207292,-0.207292 0.207292,-0.540974 0,-0.748266 L 20.88662,29.374171 c -0.103645,-0.103645 -0.238869,-0.155544 -0.374132,-0.155544 z" />
  </g>
  <g
     inkscape:label="Wing 2"
     id="layer2"
     inkscape:groupmode="layer">
    <rect
       rx="0.52915996"
       ry="0.52915996"
       y="30.162119"
       x="9.7894602"
       height="1.0583199"
       width="2.9103799"
       id="rect1949-6"
       style="display:inline;opacity:1;mix-blend-mode:normal;fill:#ffffff;fill-opacity:1;fill-rule:evenodd;stroke:#000000;stroke-width:0.52916;stroke-linecap:butt;stroke-linejoin:round;stroke-miterlimit:4;stroke-dasharray:none;stroke-opacity:1" />
  </g>
  <g
     inkscape:label="Wing 1"
     id="layer9"
     inkscape:groupmode="layer">
    <path
       id="rect1949-3"
       style="display:inline;opacity:1;mix-blend-mode:normal;fill:#ffffff;fill-opacity:1;fill-rule:evenodd;stroke:#000000;stroke-width:0.52916;stroke-linecap:butt;stroke-linejoin:round;stroke-miterlimit:4;stroke-dasharray:none;stroke-opacity:1"
       d="m 0.69741378,30.29441 -0.01499,0.01499 c -0.207291,0.207292 -0.207291,0.540974 0,0.748265 l 0.93533192,0.935332 c 0.207292,0.207291 0.540974,0.207291 0.748265,0 l 0.935332,-0.935332 c 0.207292,-0.207292 0.207292,-0.540973 0,-0.748265 l -0.01499,-0.01499 z" />
  </g>
  <g
     inkscape:groupmode="layer"
     id="layer6"
     inkscape:label="Bird Body 2"
     style="display:inline">
    <ellipse
       style="display:inline;fill:#ffffff;fill-opacity:1;fill-rule:evenodd;stroke:#000000;stroke-width:0.52916;stroke-linejoin:round;stroke-miterlimit:4;stroke-dasharray:none;stroke-opacity:1"
       id="path1487"
       cx="26.657839"
       cy="5.6125898"
       rx="1.5874799"
       ry="2.6457999"
       transform="rotate(45)" />
    <circle
       style="display:inline;fill:#ffffff;fill-opacity:1;fill-rule:evenodd;stroke:#000000;stroke-width:0.52916;stroke-linecap:butt;stroke-linejoin:round;stroke-miterlimit:4;stroke-dasharray:none;stroke-opacity:1"
       id="path1521"
       cx="14.022739"
       cy="21.430981"
       r="0.79373997" />
  </g>
  <g
     inkscape:groupmode="layer"
     id="layer4"
     inkscape:label="Bird Body 1"
     style="display:inline">
    <circle
       cx="4.49786"
       cy="21.69556"
       r="4.2332797"
       id="path10"
       style="display:inline;fill:#ffffff;fill-opacity:1;fill-rule:evenodd;stroke:#000000;stroke-width:0.52916;stroke-miterlimit:1;stroke-dasharray:none;stroke-opacity:1" />
  </g>
  <g
     inkscape:groupmode="layer"
     id="layer3"
     inkscape:label="Cloud"
     style="display:inline">
    <path
       d="M 12.964418,0.26458001 A 4.2332797,4.2332797 0 0 0 8.76421,3.9692163 4.2332797,4.2332797 0 0 0 8.73114,3.9687004 4.2332797,4.2332797 0 0 0 4.49786,8.2019804 4.2332797,4.2332797 0 0 0 0.26458001,12.43526 4.2332797,4.2332797 0 0 0 4.49786,16.66854 a 4.2332797,4.2332797 0 0 0 2.11664,-0.5674 4.2332797,4.2332797 0 0 0 2.11664,0.5674 4.2332797,4.2332797 0 0 0 2.11664,-0.5674 4.2332797,4.2332797 0 0 0 2.11664,0.5674 4.2332797,4.2332797 0 0 0 2.11664,-0.5674 4.2332797,4.2332797 0 0 0 2.11664,0.5674 4.2332797,4.2332797 0 0 0 2.11664,-0.5674 4.2332797,4.2332797 0 0 0 2.11664,0.5674 4.2332797,4.2332797 0 0 0 1.98435,-0.494021 4.2332797,4.2332797 0 0 0 1.98435,0.494021 4.2332797,4.2332797 0 0 0 1.98435,-0.494021 4.2332797,4.2332797 0 0 0 1.98435,0.494021 4.2332797,4.2332797 0 0 0 4.23328,-4.23328 4.2332797,4.2332797 0 0 0 -3.704636,-4.2002076 4.2332797,4.2332797 0 0 0 5.29e-4,-0.03307 4.2332797,4.2332797 0 0 0 -4.23328,-4.23328 4.2332797,4.2332797 0 0 0 -0.03307,5.292e-4 4.2332797,4.2332797 0 0 0 -4.200223,-3.70464859 4.2332797,4.2332797 0 0 0 -2.11664,0.5674 4.2332797,4.2332797 0 0 0 -2.11664,-0.5674 4.2332797,4.2332797 0 0 0 -2.11664,0.5674 4.2332797,4.2332797 0 0 0 -2.11664,-0.5674 z"
       style="opacity:1;fill:#ffffff;fill-opacity:1;fill-rule:evenodd;stroke:#000000;stroke-width:0.52916;stroke-miterlimit:4;stroke-dasharray:none;stroke-opacity:1"
       id="path1549" />
  </g>
</svg>
